<svg width="35" height="33" viewBox="0 0 35 33" fill="none" xmlns="http://www.w3.org/2000/svg">
<g filter="url(#filter0_d_232_3)">
<rect x="1" y="1" width="33" height="31" rx="10" fill="#F3EFEF" fill-opacity="0.25" shape-rendering="crispEdges"/>
<rect x="1.5" y="1.5" width="32" height="30" rx="9.5" stroke="#FFFAFA" shape-rendering="crispEdges"/>
</g>
<path d="M15.652 19.8864V19.7798C15.6638 18.6494 15.7822 17.7498 16.0071 17.081C16.232 16.4122 16.5516 15.8706 16.9659 15.4563C17.3802 15.042 17.8774 14.6603 18.4574 14.3111C18.8066 14.098 19.1203 13.8465 19.3984 13.5565C19.6766 13.2605 19.8956 12.9202 20.0554 12.5355C20.2211 12.1508 20.304 11.7247 20.304 11.2571C20.304 10.6771 20.1679 10.174 19.8956 9.74787C19.6233 9.32173 19.2594 8.99325 18.8036 8.76243C18.3479 8.5316 17.8419 8.41619 17.2855 8.41619C16.8002 8.41619 16.3326 8.51681 15.8828 8.71804C15.433 8.91927 15.0572 9.23591 14.7553 9.66797C14.4535 10.1 14.2789 10.6652 14.2315 11.3636H11.9943C12.0417 10.3575 12.3021 9.49633 12.7756 8.78018C13.255 8.06404 13.8853 7.51657 14.6665 7.13778C15.4537 6.759 16.3267 6.5696 17.2855 6.5696C18.3272 6.5696 19.2327 6.77675 20.0021 7.19105C20.7775 7.60535 21.3752 8.17353 21.7955 8.8956C22.2216 9.61766 22.4347 10.4403 22.4347 11.3636C22.4347 12.0147 22.334 12.6036 22.1328 13.1303C21.9375 13.6571 21.6534 14.1276 21.2805 14.5419C20.9136 14.9562 20.4697 15.3232 19.9489 15.6428C19.428 15.9683 19.0108 16.3116 18.6971 16.6726C18.3834 17.0277 18.1555 17.4509 18.0135 17.9421C17.8714 18.4334 17.7945 19.0459 17.7827 19.7798V19.8864H15.652ZM16.7884 25.142C16.3504 25.142 15.9746 24.9852 15.6609 24.6715C15.3472 24.3578 15.1903 23.982 15.1903 23.544C15.1903 23.1061 15.3472 22.7302 15.6609 22.4165C15.9746 22.1029 16.3504 21.946 16.7884 21.946C17.2263 21.946 17.6022 22.1029 17.9158 22.4165C18.2295 22.7302 18.3864 23.1061 18.3864 23.544C18.3864 23.834 18.3124 24.1004 18.1644 24.343C18.0224 24.5857 17.83 24.781 17.5874 24.929C17.3506 25.071 17.0843 25.142 16.7884 25.142Z" fill="black"/>
<defs>
<filter id="filter0_d_232_3" x="0" y="0" width="35" height="33" filterUnits="userSpaceOnUse" color-interpolation-filters="sRGB">
<feFlood flood-opacity="0" result="BackgroundImageFix"/>
<feColorMatrix in="SourceAlpha" type="matrix" values="0 0 0 0 0 0 0 0 0 0 0 0 0 0 0 0 0 0 127 0" result="hardAlpha"/>
<feOffset/>
<feGaussianBlur stdDeviation="0.5"/>
<feComposite in2="hardAlpha" operator="out"/>
<feColorMatrix type="matrix" values="0 0 0 0 0 0 0 0 0 0 0 0 0 0 0 0 0 0 1 0"/>
<feBlend mode="normal" in2="BackgroundImageFix" result="effect1_dropShadow_232_3"/>
<feBlend mode="normal" in="SourceGraphic" in2="effect1_dropShadow_232_3" result="shape"/>
</filter>
</defs>
</svg>
